<svg width="228" height="14" viewBox="0 0 228 14" fill="none" xmlns="http://www.w3.org/2000/svg">
<path d="M5.40341 10.9461C8.31179 10.9461 10.6634 8.59452 10.6534 5.69608C10.6435 2.79764 8.31179 0.446078 5.40341 0.446078C2.51491 0.446078 0.163352 2.79764 0.153409 5.69608C0.143466 8.59452 2.51491 10.9461 5.40341 10.9461ZM5.40341 9.79267C3.14134 9.79267 1.29688 7.94821 1.30682 5.70105C1.31676 3.43898 3.15128 1.59949 5.40341 1.59949C7.66548 1.59949 9.49006 3.42903 9.5 5.70105C9.50994 7.95815 7.67543 9.79267 5.40341 9.79267ZM2.5 5.69608C2.5 7.32676 3.82244 8.6492 5.45312 8.6492C6.86506 8.6492 7.94886 7.65488 8.13778 6.33244H6.93466C6.79545 7.01355 6.21875 7.49579 5.45312 7.49579C4.45881 7.49579 3.65341 6.6904 3.65341 5.69608C3.65341 4.70176 4.45881 3.89636 5.45312 3.89636C6.21875 3.89636 6.89986 4.37861 7.03409 5.05971H8.23722C8.0483 3.73727 6.86506 2.74295 5.45312 2.74295C3.82244 2.74295 2.5 4.0654 2.5 5.69608ZM16.802 10.787H23.2253V9.69324H18.4924V9.61369L20.7793 7.16767C22.5293 5.29338 23.0463 4.41838 23.0463 3.28983C23.0463 1.7188 21.7736 0.465964 19.9838 0.465964C18.199 0.465964 16.8418 1.67903 16.8418 3.4688H18.0151C18.0151 2.31042 18.7658 1.53983 19.9441 1.53983C21.0478 1.53983 21.8929 2.21596 21.8929 3.28983C21.8929 4.22946 21.3411 4.92548 20.1628 6.21312L16.802 9.8921V10.787ZM28.5996 10.9262C30.8468 10.9262 32.1394 9.02207 32.1394 5.69608C32.1394 2.39494 30.8269 0.465964 28.5996 0.465964C26.3723 0.465964 25.0598 2.39494 25.0598 5.69608C25.0598 9.02207 26.3525 10.9262 28.5996 10.9262ZM28.5996 9.83244C27.1181 9.83244 26.253 8.34594 26.253 5.69608C26.253 3.05119 27.128 1.53983 28.5996 1.53983C30.0712 1.53983 30.9462 3.05119 30.9462 5.69608C30.9462 8.34594 30.0811 9.83244 28.5996 9.83244ZM34.0286 10.787H40.4519V9.69324H35.7189V9.61369L38.0059 7.16767C39.7559 5.29338 40.2729 4.41838 40.2729 3.28983C40.2729 1.7188 39.0002 0.465964 37.2104 0.465964C35.4256 0.465964 34.0684 1.67903 34.0684 3.4688H35.2417C35.2417 2.31042 35.9924 1.53983 37.1706 1.53983C38.2743 1.53983 39.1195 2.21596 39.1195 3.28983C39.1195 4.22946 38.5676 4.92548 37.3894 6.21312L34.0286 9.8921V10.787ZM45.7665 0.605169H44.6728C44.6081 0.709572 43.8773 2.11653 42.3063 2.11653V3.15062C43.4746 3.15062 44.3098 2.67335 44.454 2.39494H44.5336V10.787H45.7665V0.605169ZM52.8013 10.787H58.7672V9.69324H54.0343V0.605169H52.8013V10.787ZM63.4007 10.9461C64.8723 10.9461 65.3695 10.0313 65.628 9.61369H65.7672V10.787H66.9007V3.15062H65.7275V4.36369H65.628C65.3695 3.96596 64.9121 3.05119 63.4206 3.05119C61.4917 3.05119 60.1593 4.58244 60.1593 6.98869C60.1593 9.41483 61.4917 10.9461 63.4007 10.9461ZM63.5598 9.8921C62.0882 9.8921 61.3326 8.59949 61.3326 6.96881C61.3326 5.35801 62.0684 4.10517 63.5598 4.10517C64.9917 4.10517 65.7473 5.25858 65.7473 6.96881C65.7473 8.69892 64.9718 9.8921 63.5598 9.8921ZM70.9426 10.787H72.0961L73.7665 4.92051H73.8858L75.5563 10.787H76.7097L79.0364 3.15062H77.8034L76.1529 8.97733H76.0733L74.4625 3.15062H73.2097L71.579 8.99721H71.4995L69.8489 3.15062H68.6159L70.9426 10.787ZM80.5875 0.605169V9.11653C80.5875 10.2053 81.1444 10.8466 82.258 10.8466C82.5961 10.8466 82.9292 10.787 83.133 10.7273L82.8944 9.71312C82.78 9.74792 82.6756 9.78273 82.3972 9.79267C81.8801 9.80758 81.7608 9.53912 81.7608 8.79835V0.605169H80.5875ZM84.2106 10.787H85.3839V3.15062H84.2106V10.787ZM84.8072 1.8779C85.2646 1.8779 85.6424 1.51994 85.6424 1.08244C85.6424 0.644942 85.2646 0.286987 84.8072 0.286987C84.3498 0.286987 83.9719 0.644942 83.9719 1.08244C83.9719 1.51994 84.3498 1.8779 84.8072 1.8779ZM90.7346 10.9461C92.2857 10.9461 93.4192 10.1705 93.7772 9.0171L92.6436 8.69892C92.3453 9.49437 91.6543 9.8921 90.7346 9.8921C89.3574 9.8921 88.4078 9.00219 88.3532 7.36653H93.8965V6.86937C93.8965 4.02562 92.2061 3.05119 90.6152 3.05119C88.5471 3.05119 87.1749 4.68187 87.1749 7.02846C87.1749 9.37506 88.5272 10.9461 90.7346 10.9461ZM88.3532 6.35233C88.4327 5.16412 89.2729 4.10517 90.6152 4.10517C91.888 4.10517 92.7033 5.05971 92.7033 6.35233H88.3532ZM99.0023 3.15062H97.3716V1.32108H96.1983V3.15062H95.0449V4.14494H96.1983V8.91767C96.1983 10.2501 97.2722 10.8864 98.2665 10.8864C98.704 10.8864 98.9824 10.8069 99.1415 10.7472L98.9029 9.69324C98.8034 9.71312 98.6444 9.7529 98.3858 9.7529C97.8688 9.7529 97.3716 9.59381 97.3716 8.59949V4.14494H99.0023V3.15062ZM101.622 10.8665C102.115 10.8665 102.517 10.4638 102.517 9.97165C102.517 9.47946 102.115 9.07676 101.622 9.07676C101.13 9.07676 100.727 9.47946 100.727 9.97165C100.727 10.4638 101.13 10.8665 101.622 10.8665ZM109.137 10.787L110.161 7.90346H114.278L115.302 10.787H116.594L112.856 0.605169H111.583L107.844 10.787H109.137ZM110.549 6.80971L112.18 2.21596H112.259L113.89 6.80971H110.549ZM118.021 0.605169V9.11653C118.021 10.2053 118.578 10.8466 119.692 10.8466C120.03 10.8466 120.363 10.787 120.567 10.7273L120.328 9.71312C120.214 9.74792 120.109 9.78273 119.831 9.79267C119.314 9.80758 119.194 9.53912 119.194 8.79835V0.605169H118.021ZM121.849 0.605169V9.11653C121.849 10.2053 122.406 10.8466 123.52 10.8466C123.858 10.8466 124.191 10.787 124.395 10.7273L124.156 9.71312C124.042 9.74792 123.937 9.78273 123.659 9.79267C123.142 9.80758 123.023 9.53912 123.023 8.79835V0.605169H121.849ZM129.41 10.787H130.583V5.9546C130.583 4.92548 131.398 4.16483 132.512 4.16483C132.805 4.16483 133.024 4.21952 133.188 4.30403L133.586 3.30971C133.347 3.14068 133.034 3.0313 132.612 3.0313C131.687 3.0313 130.896 3.54835 130.623 4.30403H130.543V3.15062H129.41V10.787ZM134.783 10.787H135.956V3.15062H134.783V10.787ZM135.379 1.8779C135.837 1.8779 136.215 1.51994 136.215 1.08244C136.215 0.644942 135.837 0.286987 135.379 0.286987C134.922 0.286987 134.544 0.644942 134.544 1.08244C134.544 1.51994 134.922 1.8779 135.379 1.8779ZM141.188 13.8097C143.017 13.8097 144.489 12.9745 144.489 11.0057V3.15062H143.355V4.36369H143.236C142.977 3.96596 142.5 3.05119 141.009 3.05119C139.08 3.05119 137.747 4.58244 137.747 6.92903C137.747 9.3154 139.139 10.6677 140.989 10.6677C142.48 10.6677 142.957 9.79267 143.216 9.37506H143.315V10.9262C143.315 12.1989 142.42 12.7756 141.188 12.7756C139.8 12.7756 139.313 12.0448 139 11.6222L138.065 12.2785C138.543 13.0789 139.482 13.8097 141.188 13.8097ZM141.148 9.61369C139.676 9.61369 138.92 8.50006 138.92 6.90915C138.92 5.35801 139.656 4.10517 141.148 4.10517C142.58 4.10517 143.335 5.25858 143.335 6.90915C143.335 8.59949 142.56 9.61369 141.148 9.61369ZM147.81 6.19324C147.81 4.86085 148.66 4.10517 149.818 4.10517C150.922 4.10517 151.588 4.80119 151.588 6.01426V10.787H152.761V5.93471C152.761 3.97094 151.717 3.05119 150.156 3.05119C148.953 3.05119 148.267 3.55332 147.909 4.34381H147.81V0.605169H146.636V10.787H147.81V6.19324ZM158.229 3.15062H156.598V1.32108H155.425V3.15062H154.271V4.14494H155.425V8.91767C155.425 10.2501 156.499 10.8864 157.493 10.8864C157.931 10.8864 158.209 10.8069 158.368 10.7472L158.129 9.69324C158.03 9.71312 157.871 9.7529 157.612 9.7529C157.095 9.7529 156.598 9.59381 156.598 8.59949V4.14494H158.229V3.15062ZM165.266 4.86085C164.898 3.77704 164.073 3.05119 162.562 3.05119C160.951 3.05119 159.758 3.96596 159.758 5.25858C159.758 6.31256 160.384 7.01852 161.786 7.34665L163.059 7.64494C163.829 7.82392 164.192 8.19182 164.192 8.71881C164.192 9.37506 163.496 9.91199 162.403 9.91199C161.443 9.91199 160.841 9.49935 160.633 8.67903L159.519 8.95744C159.792 10.255 160.861 10.9461 162.422 10.9461C164.197 10.9461 165.405 9.97662 165.405 8.65915C165.405 7.59523 164.739 6.92406 163.377 6.59096L162.243 6.31256C161.339 6.08883 160.931 5.78557 160.931 5.19892C160.931 4.54267 161.627 4.0654 162.562 4.0654C163.586 4.0654 164.008 4.63216 164.212 5.15915L165.266 4.86085ZM171.109 10.787H172.282V5.9546C172.282 4.92548 173.098 4.16483 174.211 4.16483C174.505 4.16483 174.723 4.21952 174.887 4.30403L175.285 3.30971C175.047 3.14068 174.733 3.0313 174.311 3.0313C173.386 3.0313 172.596 3.54835 172.322 4.30403H172.243V3.15062H171.109V10.787ZM179.451 10.9461C181.002 10.9461 182.136 10.1705 182.494 9.0171L181.36 8.69892C181.062 9.49437 180.371 9.8921 179.451 9.8921C178.074 9.8921 177.125 9.00219 177.07 7.36653H182.613V6.86937C182.613 4.02562 180.923 3.05119 179.332 3.05119C177.264 3.05119 175.892 4.68187 175.892 7.02846C175.892 9.37506 177.244 10.9461 179.451 10.9461ZM177.07 6.35233C177.15 5.16412 177.99 4.10517 179.332 4.10517C180.605 4.10517 181.42 5.05971 181.42 6.35233H177.07ZM189.807 4.86085C189.439 3.77704 188.614 3.05119 187.103 3.05119C185.492 3.05119 184.299 3.96596 184.299 5.25858C184.299 6.31256 184.925 7.01852 186.327 7.34665L187.6 7.64494C188.37 7.82392 188.733 8.19182 188.733 8.71881C188.733 9.37506 188.037 9.91199 186.944 9.91199C185.984 9.91199 185.382 9.49935 185.174 8.67903L184.06 8.95744C184.333 10.255 185.402 10.9461 186.963 10.9461C188.738 10.9461 189.946 9.97662 189.946 8.65915C189.946 7.59523 189.28 6.92406 187.918 6.59096L186.784 6.31256C185.88 6.08883 185.472 5.78557 185.472 5.19892C185.472 4.54267 186.168 4.0654 187.103 4.0654C188.127 4.0654 188.549 4.63216 188.753 5.15915L189.807 4.86085ZM194.914 10.9461C196.465 10.9461 197.599 10.1705 197.957 9.0171L196.823 8.69892C196.525 9.49437 195.834 9.8921 194.914 9.8921C193.537 9.8921 192.588 9.00219 192.533 7.36653H198.076V6.86937C198.076 4.02562 196.386 3.05119 194.795 3.05119C192.727 3.05119 191.355 4.68187 191.355 7.02846C191.355 9.37506 192.707 10.9461 194.914 10.9461ZM192.533 6.35233C192.612 5.16412 193.453 4.10517 194.795 4.10517C196.068 4.10517 196.883 5.05971 196.883 6.35233H192.533ZM199.861 10.787H201.034V5.9546C201.034 4.92548 201.85 4.16483 202.963 4.16483C203.257 4.16483 203.475 4.21952 203.639 4.30403L204.037 3.30971C203.798 3.14068 203.485 3.0313 203.063 3.0313C202.138 3.0313 201.347 3.54835 201.074 4.30403H200.994V3.15062H199.861V10.787ZM211.601 3.15062H210.329L208.221 9.23585H208.141L206.033 3.15062H204.76L207.584 10.787H208.778L211.601 3.15062ZM216.078 10.9461C217.629 10.9461 218.763 10.1705 219.121 9.0171L217.987 8.69892C217.689 9.49437 216.998 9.8921 216.078 9.8921C214.701 9.8921 213.752 9.00219 213.697 7.36653H219.24V6.86937C219.24 4.02562 217.55 3.05119 215.959 3.05119C213.891 3.05119 212.519 4.68187 212.519 7.02846C212.519 9.37506 213.871 10.9461 216.078 10.9461ZM213.697 6.35233C213.776 5.16412 214.617 4.10517 215.959 4.10517C217.232 4.10517 218.047 5.05971 218.047 6.35233H213.697ZM223.909 10.9461C225.38 10.9461 225.877 10.0313 226.136 9.61369H226.275V10.787H227.409V0.605169H226.235V4.36369H226.136C225.877 3.96596 225.42 3.05119 223.928 3.05119C221.999 3.05119 220.667 4.58244 220.667 6.98869C220.667 9.41483 221.999 10.9461 223.909 10.9461ZM224.068 9.8921C222.596 9.8921 221.84 8.59949 221.84 6.96881C221.84 5.35801 222.576 4.10517 224.068 4.10517C225.499 4.10517 226.255 5.25858 226.255 6.96881C226.255 8.69892 225.48 9.8921 224.068 9.8921Z" fill="#D9DBE1"/>
</svg>
